# xmcd
#
# Track frame offsets:
#	150
#	11601
#	34147
#	47181
#	64401
#	80971
#	97699
#	115747
#	135582
#	161112
#	176641
#	199296
#	219344
#	238822
#
# Disc length: 3663 seconds
#
# Revision: 0
# Processed by: cddbd v1.5.1PL0 Copyright (c) Steve Scherf et al.
# Submitted via: dBpowerAMP V4.0
#
DISCID=c70e4d0e
DTITLE=La pablo traverzo banda - un peso
DYEAR=2003
DGENRE=Blues
TTITLE0=FaUdarloy
TTITLE1=No me digas nada
TTITLE2=Despierto y solo
TTITLE3=Cerca o lejos
TTITLE4=Me voy
TTITLE5=Lo que vendrá
TTITLE6=Hasta que el cuerpo me duela
TTITLE7=Motivos
TTITLE8=Un peso
TTITLE9=Desde el sol
TTITLE10=Mi obsesión
TTITLE11=i.v.
TTITLE12=Indigo
TTITLE13=Azul
EXTD=
EXTT0=
EXTT1=
EXTT2=
EXTT3=
EXTT4=
EXTT5=
EXTT6=
EXTT7=
EXTT8=
EXTT9=
EXTT10=
EXTT11=
EXTT12=
EXTT13=
PLAYORDER=
